<svg xmlns="http://www.w3.org/2000/svg" width="800" height="500" viewBox="0 0 800 500">
  <defs>
    <linearGradient id="bg" x1="0%" y1="0%" x2="100%" y2="100%">
      <stop offset="0%" style="stop-color:#1a1a2e;stop-opacity:1" />
      <stop offset="100%" style="stop-color:#16213e;stop-opacity:1" />
    </linearGradient>
    <linearGradient id="card" x1="0%" y1="0%" x2="100%" y2="100%">
      <stop offset="0%" style="stop-color:#0f3460;stop-opacity:1" />
      <stop offset="100%" style="stop-color:#1a1a2e;stop-opacity:1" />
    </linearGradient>
  </defs>

  <!-- Background -->
  <rect width="800" height="500" fill="url(#bg)"/>

  <!-- Header -->
  <rect x="0" y="0" width="800" height="60" fill="#0f3460"/>
  <text x="30" y="38" font-family="Segoe UI, Arial, sans-serif" font-size="20" font-weight="bold" fill="#e94560">PAM Multi-Vendor Lab</text>
  <text x="250" y="38" font-family="Segoe UI, Arial, sans-serif" font-size="14" fill="#94a3b8">Dashboard v2.0</text>

  <!-- Platform Cards -->
  <!-- Vault Card -->
  <rect x="30" y="80" width="230" height="120" rx="8" fill="url(#card)" stroke="#e94560" stroke-width="2"/>
  <text x="50" y="115" font-family="Segoe UI, Arial, sans-serif" font-size="16" font-weight="bold" fill="#f97316">HashiCorp Vault</text>
  <text x="50" y="140" font-family="Segoe UI, Arial, sans-serif" font-size="12" fill="#94a3b8">Dynamic Secrets</text>
  <text x="50" y="160" font-family="Segoe UI, Arial, sans-serif" font-size="24" font-weight="bold" fill="#22c55e">47</text>
  <text x="90" y="160" font-family="Segoe UI, Arial, sans-serif" font-size="12" fill="#94a3b8">secrets</text>
  <circle cx="220" cy="130" r="25" fill="#f97316" opacity="0.2"/>
  <text x="212" y="137" font-family="Segoe UI, Arial, sans-serif" font-size="18" fill="#f97316">V</text>

  <!-- Delinea Card -->
  <rect x="285" y="80" width="230" height="120" rx="8" fill="url(#card)" stroke="#e94560" stroke-width="2"/>
  <text x="305" y="115" font-family="Segoe UI, Arial, sans-serif" font-size="16" font-weight="bold" fill="#3b82f6">Delinea Secret Server</text>
  <text x="305" y="140" font-family="Segoe UI, Arial, sans-serif" font-size="12" fill="#94a3b8">Enterprise PAM</text>
  <text x="305" y="160" font-family="Segoe UI, Arial, sans-serif" font-size="24" font-weight="bold" fill="#22c55e">32</text>
  <text x="345" y="160" font-family="Segoe UI, Arial, sans-serif" font-size="12" fill="#94a3b8">secrets</text>
  <circle cx="475" cy="130" r="25" fill="#3b82f6" opacity="0.2"/>
  <text x="467" y="137" font-family="Segoe UI, Arial, sans-serif" font-size="18" fill="#3b82f6">D</text>

  <!-- AWS Card -->
  <rect x="540" y="80" width="230" height="120" rx="8" fill="url(#card)" stroke="#e94560" stroke-width="2"/>
  <text x="560" y="115" font-family="Segoe UI, Arial, sans-serif" font-size="16" font-weight="bold" fill="#f59e0b">AWS Secrets Manager</text>
  <text x="560" y="140" font-family="Segoe UI, Arial, sans-serif" font-size="12" fill="#94a3b8">Cloud Native</text>
  <text x="560" y="160" font-family="Segoe UI, Arial, sans-serif" font-size="24" font-weight="bold" fill="#22c55e">18</text>
  <text x="600" y="160" font-family="Segoe UI, Arial, sans-serif" font-size="12" fill="#94a3b8">secrets</text>
  <circle cx="730" cy="130" r="25" fill="#f59e0b" opacity="0.2"/>
  <text x="718" y="137" font-family="Segoe UI, Arial, sans-serif" font-size="18" fill="#f59e0b">A</text>

  <!-- Health Status Section -->
  <rect x="30" y="220" width="360" height="140" rx="8" fill="url(#card)" stroke="#334155" stroke-width="1"/>
  <text x="50" y="250" font-family="Segoe UI, Arial, sans-serif" font-size="14" font-weight="bold" fill="#e2e8f0">Platform Health</text>

  <circle cx="60" cy="280" r="8" fill="#22c55e"/>
  <text x="80" y="285" font-family="Segoe UI, Arial, sans-serif" font-size="12" fill="#94a3b8">Vault: Connected</text>

  <circle cx="60" cy="310" r="8" fill="#22c55e"/>
  <text x="80" y="315" font-family="Segoe UI, Arial, sans-serif" font-size="12" fill="#94a3b8">Delinea: Connected (Mock)</text>

  <circle cx="60" cy="340" r="8" fill="#22c55e"/>
  <text x="80" y="345" font-family="Segoe UI, Arial, sans-serif" font-size="12" fill="#94a3b8">AWS: Connected (Mock)</text>

  <!-- Migration Activity -->
  <rect x="410" y="220" width="360" height="140" rx="8" fill="url(#card)" stroke="#334155" stroke-width="1"/>
  <text x="430" y="250" font-family="Segoe UI, Arial, sans-serif" font-size="14" font-weight="bold" fill="#e2e8f0">Recent Migrations</text>

  <text x="430" y="280" font-family="Segoe UI, Arial, sans-serif" font-size="11" fill="#94a3b8">Delinea -> Vault: 12 secrets</text>
  <rect x="430" y="288" width="150" height="6" rx="3" fill="#1e293b"/>
  <rect x="430" y="288" width="120" height="6" rx="3" fill="#22c55e"/>

  <text x="430" y="315" font-family="Segoe UI, Arial, sans-serif" font-size="11" fill="#94a3b8">Vault -> Delinea: 8 secrets</text>
  <rect x="430" y="323" width="150" height="6" rx="3" fill="#1e293b"/>
  <rect x="430" y="323" width="80" height="6" rx="3" fill="#3b82f6"/>

  <text x="430" y="350" font-family="Segoe UI, Arial, sans-serif" font-size="11" fill="#94a3b8">AWS Sync: 5 secrets</text>
  <rect x="430" y="358" width="150" height="6" rx="3" fill="#1e293b"/>
  <rect x="430" y="358" width="50" height="6" rx="3" fill="#f59e0b"/>

  <!-- Footer -->
  <rect x="30" y="380" width="740" height="100" rx="8" fill="url(#card)" stroke="#334155" stroke-width="1"/>
  <text x="50" y="410" font-family="Segoe UI, Arial, sans-serif" font-size="14" font-weight="bold" fill="#e2e8f0">Quick Actions</text>

  <rect x="50" y="425" width="140" height="35" rx="6" fill="#0f3460" stroke="#e94560" stroke-width="1"/>
  <text x="80" y="448" font-family="Segoe UI, Arial, sans-serif" font-size="11" fill="#e94560">Run Migration</text>

  <rect x="210" y="425" width="140" height="35" rx="6" fill="#0f3460" stroke="#22c55e" stroke-width="1"/>
  <text x="240" y="448" font-family="Segoe UI, Arial, sans-serif" font-size="11" fill="#22c55e">Health Check</text>

  <rect x="370" y="425" width="140" height="35" rx="6" fill="#0f3460" stroke="#3b82f6" stroke-width="1"/>
  <text x="395" y="448" font-family="Segoe UI, Arial, sans-serif" font-size="11" fill="#3b82f6">Compare Secrets</text>

  <rect x="530" y="425" width="140" height="35" rx="6" fill="#0f3460" stroke="#f59e0b" stroke-width="1"/>
  <text x="565" y="448" font-family="Segoe UI, Arial, sans-serif" font-size="11" fill="#f59e0b">View Logs</text>
</svg>
